<?xml version="1.0" encoding="UTF-8"?>
<svg id="Layer_2" data-name="Layer 2" xmlns="http://www.w3.org/2000/svg" viewBox="0 0 150.11 105.9">
  <defs>
    <style>
      .cls-1 {
        fill: #abd15c;
      }

      .cls-2 {
        fill: #1d4587;
      }

      .cls-3 {
        fill: none;
        stroke: #1d4587;
        stroke-miterlimit: 10;
      }
    </style>
  </defs>
  <g id="Layer_1-2" data-name="Layer 1">
    <path class="cls-2" d="m.36,37.51s46.06,34.24,92.8,2.49c25.15-17.45,56.62-7.89,56.62-7.89v2.53s-29.49-10.33-56.73,8.58C42.41,77.61.36,40.58.36,40.58v-3.07Z"/>
    <path class="cls-2" d="m149.78,27.05s-35.46-8.03-56.42,6.51C54.42,60.02.35,31.38.35,31.38v3.07s50.07,31.43,92.91,2.33c23.05-15.99,56.52-7.2,56.52-7.2v-2.53Z"/>
    <path class="cls-2" d="m48.64,35.71C23.5,33.85.34,25.25.34,25.25v3.07s22.17,9.86,47.38,11.79c.33-1.38.63-2.86.92-4.39"/>
    <path class="cls-2" d="m93.58,27.13c-10.18,6.91-23.66,9.11-37.19,8.93-.34,1.85-.68,3.28-.98,4.36,13.27.08,26.85-2.46,38.07-10.08,18.86-13.09,56.31-5.82,56.31-5.82v-2.53s-39.44-6.5-56.21,5.13"/>
    <path class="cls-2" d="m38.93,25.93C18.22,23.57.33,19.12.33,19.12v3.07s17.65,5.41,38.47,8.07c.03-1.09.08-2.77.13-4.33"/>
    <path class="cls-2" d="m93.79,20.69c-5.72,3.89-14.24,5.77-23.85,6.41-.11,1.21-.27,2.8-.46,4.2,9.3-.84,17.81-3.05,24.2-7.39,14.67-10.18,56.11-4.44,56.11-4.44v-2.53s-43.43-4.97-56,3.75"/>
    <path class="cls-2" d="m50.8,18.21C25.97,16.88.32,12.99.32,12.99v3.07s25.25,4.99,50.14,6.51c.15-1.57.26-3.04.34-4.36"/>
    <path class="cls-2" d="m94,14.25c-5.78,3.92-20.15,4.76-35.95,4.27-.04,1.09-.09,2.13-.15,3.14-.02.43-.05.84-.07,1.25,15.08.46,29.08-.7,36.06-5.44,10.48-7.27,55.9-3.07,55.9-3.07v-2.53s-47.41-3.44-55.79,2.38"/>
    <path class="cls-2" d="m149.8,6.82s-51.4-1.91-55.59,1C86.42,13.1.31,6.86.31,6.86v3.07s82.11,9.04,93.79,1.11c6.29-4.36,55.69-1.69,55.69-1.69v-2.53Z"/>
    <path class="cls-2" d="m.3.73h149.51v3.56s-53.4-1.14-55.49.31C90.42,7.24.31,3.79.31,3.79V.73Z"/>
    <path class="cls-3" d="m130.37,92.07H19.75c-10.63,0-19.25-8.62-19.25-19.25V.5h149.11v72.33c0,10.63-8.62,19.25-19.25,19.25Z"/>
    <path class="cls-2" d="m25.95,70.98c0,.06-.05.13-.14.22-.1.09-.17.19-.22.3l-4.28,10.1c-.02.06-.04.1-.06.14-.04.08-.08.12-.13.12-.07,0-.14-.07-.21-.22-.31-.59-.92-1.78-1.83-3.55-.43-.82-1.03-2-1.81-3.54-.6-1.16-1.2-2.33-1.79-3.51-.01-.03.03-.06.12-.09.09-.02.2-.03.31-.03.14,0,.26.01.36.03.1.02.14.06.11.1-.07.1-.11.18-.11.24,0,.03.02.1.06.19.49.99.98,1.98,1.47,2.96.7,1.42,1.18,2.38,1.45,2.89.51,1.01,1.02,1.99,1.51,2.91.1.18.2.27.3.27.08,0,.13-.06.17-.19l3.82-8.86c.04-.06.04-.15,0-.27-.04-.12-.06-.2-.06-.23s.16-.05.49-.05.49.02.49.07"/>
    <path class="cls-2" d="m32.44,82.78c0,.1-.09.15-.28.15s-.33-.03-.43-.09c-.05-.02-.04-.07.04-.15.07-.08.11-.15.11-.22v-10.96s-.03-.08-.1-.21c-.07-.12-.1-.2-.1-.24,0-.1.11-.15.34-.15.29,0,.43.08.43.24v11.62Zm1.08-11.73c0,.06-.04.14-.1.26-.07.11-.1.18-.1.21v10.96c0,.06.03.13.1.21s.08.14.03.16c-.1.06-.24.09-.42.09s-.28-.05-.28-.15v-11.62c0-.16.15-.24.44-.24.22,0,.33.05.33.14"/>
    <path class="cls-1" d="m20.81,82.2s.03.12.03.21c0,.17-.07.33-.21.48h-.08l-6.07-11.86s.03-.08.12-.11h.17c.24,0,.38.04.42.1l5.62,11.18Z"/>
    <path class="cls-2" d="m45.51,82.2s.03.12.03.21c0,.17-.07.33-.21.48h-.07l-6.07-11.86s.03-.08.12-.11h.17c.24,0,.38.03.42.1l5.62,11.18Zm5.14-11.21c0,.06-.05.13-.14.22-.1.09-.17.19-.22.3l-4.28,10.1c-.02.06-.04.1-.06.14-.04.08-.08.12-.13.12-.07,0-.14-.07-.21-.22-.31-.59-.92-1.78-1.83-3.55-.43-.82-1.03-2-1.81-3.54-.6-1.16-1.2-2.33-1.79-3.51-.01-.03.03-.06.12-.09.09-.02.2-.03.31-.03.14,0,.26.01.36.03.1.02.14.06.11.1-.07.1-.11.18-.11.24,0,.03.02.1.06.19.49.99.98,1.98,1.47,2.96.7,1.42,1.18,2.38,1.45,2.89.51,1.01,1.02,1.99,1.51,2.91.1.18.2.27.3.27.08,0,.13-.06.17-.19l3.82-8.86c.04-.06.04-.15,0-.27-.04-.12-.06-.2-.06-.23s.16-.05.49-.05.49.02.49.07"/>
    <path class="cls-2" d="m65.82,82.68c.04.07.03.13-.02.19-.05.05-.11.07-.19.07h-.34c-.14,0-.23-.03-.28-.1.04-.1.06-.2.06-.29,0-.18-.07-.41-.21-.67-.2-.39-.31-.6-.32-.64-.39-.8-.78-1.6-1.17-2.4-.07-.13-.17-.21-.29-.26-.12-.05-.25-.07-.39-.07h-4.17c-.08,0-.18.11-.3.35-.18.33-.29.55-.36.64-.45,1-.9,2-1.34,2.99-.01.06,0,.14.04.24.04.1.04.18.02.22h-1.11c-.03-.09.02-.18.14-.26.12-.08.18-.15.2-.22.4-.88.89-1.92,1.47-3.14.52-1.06,1.03-2.14,1.56-3.22.52-1.09,1-2.12,1.44-3.1.04-.13.06-.22.06-.29,0-.08-.05-.18-.14-.3-.09-.12-.16-.22-.2-.3-.04-.07-.02-.17.06-.29.07-.12.14-.19.21-.19.11,0,.26.19.45.57.08.16.16.32.25.48.54,1.12,1.09,2.24,1.64,3.35.55,1.11,1.11,2.23,1.66,3.33.6,1.23,1.13,2.34,1.58,3.32m-3.02-5.01l-1.6-3.24c-.11-.25-.21-.42-.29-.52-.08-.1-.15-.15-.22-.15-.06.03-.11.06-.13.07l-1.83,3.79c-.04.08-.04.17,0,.26.04.09.11.14.21.14h3.64c.06,0,.13-.04.19-.13.06-.09.07-.16.04-.21m4.41,5.22c-.1.03-.22.05-.36.05s-.26-.02-.38-.05c-.05-.01-.09-.04-.11-.1-.03-.08-.04-.13-.06-.15-.46-.95-1.07-2.17-1.81-3.68-.6-1.24-1.21-2.49-1.81-3.73-.49-1-1.1-2.23-1.83-3.66-.05-.09-.09-.2-.11-.34-.03-.14-.04-.26-.04-.38,0-.19.03-.29.1-.29.09,0,.19.14.32.41.8,1.69,1.71,3.54,2.71,5.55.93,1.85,1.86,3.7,2.79,5.55.04.07.14.2.32.4.18.2.26.35.26.44"/>
    <path class="cls-2" d="m91.86,82.78s-.04.06-.1.09c-.04-.01-.07-.02-.09-.03-.3-.56-.85-1.58-1.63-3.05-.53-1.02-1.05-2.02-1.57-3.01-.52-.99-1.06-2.03-1.64-3.11-.03-.06-.06-.1-.09-.12-.06-.05-.11-.05-.15,0-.05.02-.09.09-.11.21-.1.8-.23,1.74-.4,2.81-.16,1.07-.28,1.99-.36,2.74-.11,1.06-.17,1.97-.17,2.73v.33c0,.1.02.19.06.27.04.08.06.14.06.17,0,.09-.14.14-.41.14-.13,0-.24-.01-.36-.03-.11-.02-.16-.05-.15-.09,0-.01.06-.12.18-.33.12-.2.19-.46.22-.75.12-1.29.27-2.62.43-3.99.16-1.37.29-2.48.37-3.32.08-.84.12-1.64.12-2.41-.02-.12-.11-.28-.24-.46-.14-.19-.24-.34-.3-.45-.01-.04,0-.08.06-.1.05-.02.13-.03.23-.03.2,0,.34.06.41.19.72,1.29,1.41,2.57,2.07,3.86.24.46.83,1.63,1.77,3.53.7,1.4,1.3,2.58,1.79,3.55.07.18.11.32.11.43,0,.08-.03.17-.09.26m6.82-.02c0,.11-.11.17-.34.17-.21,0-.33-.05-.36-.14-.01-.05.01-.11.08-.19.06-.08.09-.16.07-.24l-.99-9.17c-.01-.15-.06-.22-.15-.22s-.15.05-.19.14c-.73,1.43-1.46,2.85-2.19,4.28-.78,1.54-1.51,3.01-2.19,4.4-.04.07-.08.1-.13.1s-.1-.04-.13-.1c-.33-.59-.91-1.67-1.74-3.22-.88-1.65-1.62-3.07-2.23-4.24-.82-1.59-1.32-2.59-1.51-3.01-.05-.07-.08-.14-.08-.22s.04-.12.11-.12h.34c.26,0,.4.06.4.19v.38c.5,1,1.01,2.01,1.52,3,.51,1,1.03,1.99,1.56,2.99.71,1.38,1.24,2.38,1.58,2.99.07.03.12.05.15.05.06.01.11,0,.13-.02.38-.63.8-1.44,1.28-2.43.7-1.45,1.1-2.27,1.2-2.46.74-1.43,1.38-2.74,1.92-3.94.04-.1.06-.19.06-.26s-.02-.15-.06-.24c-.04-.09-.06-.15-.06-.17,0-.06.09-.09.26-.09h.3c.15,0,.23.03.23.1.09.73.25,2,.48,3.81.23,1.81.39,3.15.48,4.02.14,1.44.21,2.72.21,3.86m1.11.05c0,.08-.09.12-.28.12-.26,0-.41-.07-.45-.21l-1.13-11.33c-.04-.19,0-.33.13-.43.06-.05.18-.05.35,0,.05.01.12.04.22.09.01.05,0,.12-.06.23-.05.11-.08.23-.08.35s.01.23.04.32l1.02,10.39s.03.11.07.18c.11.15.17.25.17.28"/>
    <path class="cls-2" d="m115.54,82.68c.04.07.03.13-.02.19-.05.05-.11.07-.19.07h-.34c-.14,0-.23-.03-.28-.1.04-.1.06-.2.06-.29,0-.18-.07-.41-.21-.67-.2-.39-.31-.6-.32-.64-.39-.8-.78-1.6-1.17-2.4-.07-.13-.17-.21-.29-.26-.12-.05-.25-.07-.39-.07h-4.17c-.08,0-.18.11-.3.35-.18.33-.29.55-.36.64-.45,1-.9,2-1.34,2.99-.01.06,0,.14.04.24.04.1.04.18.02.22h-1.11c-.03-.09.02-.18.14-.26.12-.08.18-.15.2-.22.4-.88.89-1.92,1.47-3.14.52-1.06,1.03-2.14,1.56-3.22.52-1.09,1-2.12,1.44-3.1.04-.13.06-.22.06-.29,0-.08-.05-.18-.14-.3-.09-.12-.16-.22-.2-.3-.04-.07-.02-.17.06-.29.07-.12.14-.19.21-.19.11,0,.26.19.45.57.08.16.16.32.25.48.54,1.12,1.09,2.24,1.64,3.35.55,1.11,1.11,2.23,1.66,3.33.6,1.23,1.13,2.34,1.58,3.32m-3.02-5.01l-1.6-3.24c-.11-.25-.21-.42-.29-.52-.08-.1-.15-.15-.22-.15-.06.03-.11.06-.13.07l-1.83,3.79c-.04.08-.04.17,0,.26.04.09.11.14.21.14h3.64c.06,0,.13-.04.19-.13.06-.09.07-.16.04-.21m4.41,5.22c-.1.03-.22.05-.36.05s-.26-.02-.38-.05c-.05-.01-.09-.04-.11-.1-.03-.08-.04-.13-.06-.15-.46-.95-1.07-2.17-1.81-3.68-.6-1.24-1.21-2.49-1.81-3.73-.49-1-1.1-2.23-1.83-3.66-.05-.09-.09-.2-.11-.34-.03-.14-.04-.26-.04-.38,0-.19.03-.29.1-.29.09,0,.19.14.32.41.8,1.69,1.71,3.54,2.71,5.55.93,1.85,1.86,3.7,2.79,5.55.04.07.14.2.32.4.18.2.26.35.26.44"/>
    <path class="cls-2" d="m123.49,82.76c0,.07-.05.11-.16.14-.11.02-.18.03-.22.03-.24,0-.36-.05-.36-.14,0-.06.02-.11.06-.17.05-.07.08-.13.08-.17v-10.95s-.01-.08-.04-.14c-.06-.15-.1-.25-.1-.31,0-.09.11-.14.32-.14.28,0,.42.08.42.24v11.61Zm10.01.39h-.53c-.67,0-1.32-.14-1.96-.43-.52-.23-1.09-.59-1.71-1.08-.29-.23-.81-.68-1.57-1.35-.79-.84-1.53-1.72-2.22-2.64-.19-.09-.38-.14-.57-.14h-.23c-.21.02-.32.12-.32.29v4.57s.02.1.08.17c.05.07.08.15.08.26,0,.01-.02.03-.08.05-.1.04-.21.05-.34.05-.23,0-.34-.04-.34-.12v-11.57c0-.07.05-.14.15-.2.1-.07.2-.1.3-.1,1.21,0,2.09.07,2.66.22,1.12.3,1.96.9,2.53,1.82.2.33.3.74.3,1.24,0,.54-.11.99-.33,1.36-.22.37-.49.68-.8.93-.31.25-.67.46-1.06.64-.1.08-.15.18-.15.29,0,.08.04.17.11.26.79,1.13,1.67,2.15,2.62,3.05,1.13,1.08,2.26,1.86,3.38,2.37v.07Zm-5.47-8.14c.06-.21.09-.45.09-.74,0-.32-.05-.63-.16-.93-.11-.3-.27-.57-.48-.82-.35-.42-.71-.71-1.07-.85-.36-.14-.89-.22-1.59-.22-.29,0-.43.11-.43.34v4.96c0,.09.05.18.15.26.36,0,.65,0,.87-.03.21-.02.43-.07.66-.15.44-.09.84-.32,1.21-.69.36-.37.61-.75.75-1.15m1.39,5.96c-.74-.9-1.48-1.79-2.21-2.69-.14-.19-.28-.39-.42-.58-.04,0-.11-.04-.21-.12-.06-.07-.15-.05-.26.05v.17c.57.73,1.03,1.28,1.4,1.67.57.6,1.13,1.1,1.7,1.5m-.68-5.38c.26-.38.4-.83.4-1.37s-.13-1-.4-1.4c-.19-.29-.36-.5-.51-.63-.09-.09-.35-.26-.77-.51-.13-.04-.2-.05-.23-.05,0,.04,0,.07.02.1.48.35.85.75,1.1,1.18.26.43.39.91.39,1.44-.05.4-.19.79-.42,1.18-.16.27-.43.63-.79,1.06.25-.08.52-.27.81-.57.19-.2.32-.35.4-.43"/>
    <path class="cls-2" d="m19.91,103.53c-.08.05-.13.12-.16.2-.02.04-.03.13-.03.27,0,.13,0,.28,0,.43s.01.3.02.44c0,.14.01.24.02.3,0,.02-.02.03-.04.05-.07.08-.17.15-.3.21-.13.06-.26.12-.4.16-.14.05-.29.08-.43.11-.15.03-.27.04-.39.05-.3.01-.6.02-.89,0-.29,0-.59-.05-.88-.13-.65-.18-1.15-.49-1.47-.92-.33-.43-.49-.95-.48-1.57,0-.36.07-.7.18-1,.12-.3.28-.56.5-.79.22-.23.48-.41.8-.55.31-.14.67-.23,1.07-.27.16-.02.34-.03.53-.04.19,0,.38,0,.58.01.19.01.38.04.56.08.18.04.35.09.51.15.03.01.07.03.12.06.05.02.1.05.15.08.05.03.1.06.13.09s.07.05.08.08c-.01.1-.01.21,0,.33,0,.12,0,.22-.03.32l-.07.03-.07-.03c-.22-.28-.5-.48-.83-.61-.33-.13-.68-.2-1.06-.2s-.69.06-.99.17c-.3.11-.56.27-.77.47-.22.2-.38.44-.5.72-.12.28-.18.58-.19.9,0,.3.05.59.16.87.11.28.29.52.53.74h0c.19.19.42.34.69.45.27.11.55.18.84.2.29.02.58,0,.86-.06.28-.06.54-.18.77-.33-.01-.18-.01-.37-.01-.56,0-.19,0-.37-.01-.56,0-.11-.05-.21-.14-.3-.03-.04-.07-.06-.09-.08-.03-.02-.06-.03-.09-.04-.03,0-.06-.02-.09-.02-.03,0-.07-.01-.11-.03v-.07s.05-.03.05-.03c.28,0,.55,0,.82,0,.27,0,.54,0,.82,0v.12c-.1,0-.18.03-.26.08"/>
    <path class="cls-2" d="m28.51,105.9c-.15-.03-.31-.07-.5-.1-.18-.03-.34-.08-.48-.13-.06-.02-.12-.05-.19-.1-.07-.04-.13-.09-.2-.14-.06-.05-.13-.1-.19-.16s-.11-.1-.16-.14c-.38-.35-.75-.69-1.13-1.04s-.75-.69-1.13-1.03v-.07s.03,0,.04-.01c.01,0,.03,0,.04,0,.18-.02.35-.05.5-.08.15-.04.29-.11.44-.23.12-.09.21-.2.27-.33.06-.12.09-.25.1-.39,0-.13-.01-.26-.07-.39-.05-.13-.13-.25-.24-.35-.1-.09-.2-.16-.32-.2-.12-.04-.24-.07-.38-.09-.13-.02-.26-.02-.4-.02-.13,0-.27,0-.4,0,.01.48.03.97.03,1.45,0,.48,0,.96,0,1.45,0,.23-.01.46-.02.69,0,.23-.01.46-.01.69,0,.11.04.22.13.31.09.09.2.14.34.13l.05.02v.06s-.06.03-.06.03c-.28,0-.56.01-.84.02-.28,0-.56.02-.84.03-.01,0-.03-.02-.04-.04-.01-.02-.02-.03-.02-.04l.07-.03c.14,0,.26-.06.34-.15.09-.09.14-.2.15-.32.02-.35.04-.71.04-1.06,0-.35,0-.7,0-1.06,0-.33,0-.66,0-.99,0-.33-.01-.66-.04-.99,0-.12-.06-.23-.15-.33-.09-.1-.21-.14-.35-.15-.02,0-.04-.02-.06-.02-.02,0-.03-.03-.01-.06,0-.01.03-.02.07-.03.38.01.76.02,1.13.03.38,0,.75.02,1.13.02.2,0,.39.03.57.1.18.07.34.16.47.28.13.12.24.26.31.42.07.16.11.33.11.51,0,.15-.03.31-.09.46-.06.15-.14.28-.25.4-.1.1-.21.19-.33.26-.12.07-.26.12-.4.16.26.27.49.51.69.72.2.2.38.38.54.54.16.15.31.29.44.41.13.12.27.23.4.34.13.11.27.21.42.31.15.1.32.22.51.34l-.06.1Z"/>
    <path class="cls-2" d="m35.49,105.13c-.02.07-.04.15-.06.23-.02.08-.04.15-.06.22-.02.07-.03.12-.04.14,0,.01-.02.02-.04.02-.02,0-.03,0-.05.01-.62-.02-1.24-.03-1.85-.03s-1.23.02-1.85.05c-.02,0-.03-.01-.04-.03,0-.02-.01-.04-.02-.05l.07-.04c.14,0,.25-.06.34-.15.09-.09.14-.2.15-.32.02-.35.03-.7.03-1.05,0-.35,0-.7,0-1.05v-.99c0-.33,0-.66-.03-.99-.01-.14-.06-.25-.15-.32-.09-.07-.2-.12-.34-.16-.02,0-.04-.01-.05-.02-.02-.01-.02-.03-.02-.05,0-.01.03-.03.07-.05.38.02.76.04,1.14.05.38,0,.76.01,1.13,0,.17,0,.35-.01.53-.02.18-.01.36-.01.54,0,.02,0,.03,0,.05.02.01.01.02.02.03.03,0,.04,0,.09,0,.16,0,.06,0,.13,0,.19s0,.13,0,.2c0,.06,0,.12,0,.15-.01.04-.04.05-.08.05s-.07-.01-.09-.05c0-.03-.01-.06-.02-.1-.01-.04-.02-.08-.04-.12-.01-.04-.03-.07-.05-.1-.02-.03-.05-.05-.08-.05-.1,0-.2-.01-.29,0-.1,0-.2.01-.29.02-.42,0-.84,0-1.26,0,0,.33,0,.66.01.99,0,.33,0,.66,0,.99h1.01c.1,0,.19-.03.27-.1s.14-.14.16-.23l.04-.03h.07s.05.05.05.05v1s-.02.06-.07.05c-.05,0-.08-.02-.1-.04-.02-.09-.08-.16-.16-.23-.08-.07-.17-.1-.28-.1h-1.01c0,.35,0,.7,0,1.05,0,.35,0,.7-.01,1.05.32,0,.64-.01.95,0,.32,0,.63,0,.95.01.16,0,.3-.04.44-.11s.23-.19.27-.33l.05-.03h.07s.04.07.04.07c0,.04-.02.09-.04.16"/>
    <path class="cls-2" d="m42.57,105.13c-.02.07-.04.15-.06.23-.02.08-.04.15-.06.22-.02.07-.03.12-.04.14,0,.01-.02.02-.04.02-.02,0-.03,0-.05.01-.62-.02-1.24-.03-1.85-.03s-1.23.02-1.85.05c-.02,0-.03-.01-.04-.03,0-.02-.01-.04-.02-.05l.07-.04c.14,0,.25-.06.34-.15.09-.09.14-.2.15-.32.02-.35.03-.7.03-1.05,0-.35,0-.7,0-1.05v-.99c0-.33,0-.66-.03-.99-.01-.14-.06-.25-.15-.32-.09-.07-.2-.12-.34-.16-.02,0-.04-.01-.05-.02-.02-.01-.02-.03-.02-.05,0-.01.03-.03.07-.05.38.02.76.04,1.14.05.38,0,.76.01,1.13,0,.17,0,.35-.01.53-.02.18-.01.36-.01.54,0,.02,0,.03,0,.05.02.01.01.02.02.03.03,0,.04,0,.09,0,.16,0,.06,0,.13,0,.19s0,.13,0,.2c0,.06,0,.12,0,.15-.01.04-.04.05-.08.05s-.07-.01-.09-.05c0-.03-.01-.06-.02-.1-.01-.04-.02-.08-.04-.12-.01-.04-.03-.07-.05-.1-.02-.03-.05-.05-.08-.05-.1,0-.2-.01-.29,0-.1,0-.2.01-.29.02-.42,0-.84,0-1.26,0,0,.33,0,.66.01.99,0,.33,0,.66,0,.99h1.01c.1,0,.19-.03.27-.1s.14-.14.16-.23l.04-.03h.07s.05.05.05.05v1s-.02.06-.07.05c-.05,0-.08-.02-.1-.04-.02-.09-.08-.16-.16-.23-.08-.07-.17-.1-.28-.1h-1.01c0,.35,0,.7,0,1.05,0,.35,0,.7-.01,1.05.32,0,.64-.01.95,0,.32,0,.63,0,.95.01.16,0,.3-.04.44-.11s.23-.19.27-.33l.05-.03h.07s.04.07.04.07c0,.04-.02.09-.04.16"/>
    <path class="cls-2" d="m51.35,105.9c-.17-.03-.32-.07-.47-.09-.15-.03-.3-.08-.47-.15-.09-.04-.17-.08-.24-.12-.07-.04-.14-.08-.2-.13-.06-.04-.13-.09-.19-.14-.07-.05-.14-.1-.22-.15-.26-.17-.5-.33-.73-.48-.22-.15-.44-.31-.64-.46-.21-.15-.41-.3-.6-.45-.2-.15-.4-.3-.6-.46,0,.32,0,.63-.02.95-.01.32-.02.63-.01.95,0,.11.04.22.12.31.08.1.19.14.33.13l.05.02v.06s-.06.03-.06.03c-.28,0-.56.01-.84.02-.28,0-.56.02-.84.03-.01,0-.03-.02-.04-.04,0-.02-.02-.03-.02-.04l.07-.03c.14,0,.26-.06.35-.15s.14-.2.15-.32c.03-.35.04-.71.04-1.06v-1.06c0-.33,0-.66,0-.99,0-.33-.02-.66-.05-.99,0-.12-.06-.23-.15-.32s-.21-.14-.35-.15c-.04-.02-.07-.04-.07-.06,0-.03.02-.04.06-.05.28,0,.56.02.84.02.28,0,.56.01.84.03.01,0,.03.01.04.03.01.02.02.04.03.05l-.07.03c-.14,0-.25.04-.33.14-.08.1-.12.2-.12.31,0,.31,0,.62.01.93.01.31.02.62.02.93.39-.34.77-.68,1.15-1.02.38-.34.77-.68,1.16-1.02h0c.05-.04.07-.09.04-.15-.02-.06-.08-.1-.16-.12h-.05s-.01-.08-.01-.08l.07-.03c.28,0,.56-.01.84-.02.28,0,.56-.01.84-.02l.06.07-.07.04c-.21,0-.41.05-.6.13-.19.08-.36.19-.52.31-.36.3-.72.61-1.06.92-.35.31-.7.62-1.06.93.64.48,1.27.96,1.9,1.44.62.48,1.26.95,1.9,1.43l-.06.11Z"/>
    <path class="cls-2" d="m65.26,105.78c-.1,0-.2-.01-.29-.01-.19,0-.38-.01-.57-.02-.19,0-.38,0-.57,0h-.02s-.04-.09-.04-.09l.06-.03c.09,0,.17-.02.25-.07.08-.04.14-.1.18-.18.03-.06.04-.12.03-.19-.02-.24-.06-.5-.1-.78-.04-.28-.07-.54-.1-.78-.03-.24-.06-.48-.09-.71-.03-.24-.06-.48-.08-.71-.28.56-.55,1.15-.82,1.75-.27.6-.54,1.18-.82,1.75-.02.02-.05.03-.09.03-.03,0-.05-.01-.07-.03-.06-.08-.12-.18-.17-.28-.05-.1-.1-.2-.15-.29-.06-.1-.11-.2-.17-.31-.06-.11-.11-.23-.16-.34-.05-.11-.11-.23-.16-.34-.05-.11-.11-.22-.16-.32-.16-.3-.33-.6-.49-.89-.16-.29-.32-.58-.49-.88-.02.25-.05.5-.08.75-.03.25-.05.5-.08.75-.01.13-.03.26-.05.4-.02.14-.03.28-.05.42-.02.14-.04.28-.05.42-.02.14-.04.27-.06.39,0,0,0,.01,0,.02,0,0,0,.01,0,.02,0,.05,0,.1.02.14.04.08.1.15.18.2.08.05.17.07.27.06h.04s.03.08.03.08l-.07.04c-.24,0-.48.02-.71.02-.24,0-.48.01-.71.02l-.03-.02-.03-.07.07-.03c.13,0,.24-.05.33-.12.05-.04.09-.08.11-.13.03-.05.04-.1.05-.16.03-.19.07-.39.1-.6.03-.21.06-.42.08-.63.02-.21.05-.42.07-.63.02-.21.05-.41.07-.6.03-.26.06-.53.08-.79.02-.26.04-.53.06-.79,0-.12.01-.25,0-.38,0-.13,0-.26.03-.38,0-.04.03-.05.07-.05s.07.02.09.03c.41.67.81,1.38,1.18,2.1.37.73.75,1.44,1.14,2.12.16-.34.33-.69.49-1.05.17-.36.33-.72.5-1.08.17-.36.34-.72.51-1.07.18-.35.35-.7.54-1.03.02,0,.04-.01.05-.02.02,0,.04,0,.06,0l.05.05c.02.37.04.76.07,1.17.03.41.06.82.1,1.23.04.41.09.83.14,1.23.05.41.12.79.19,1.15.02.13.08.22.16.29.09.07.2.11.34.13.05,0,.07.03.07.07,0,.03-.02.05-.06.05-.09,0-.18,0-.28,0"/>
    <path class="cls-2" d="m72.83,105.13c-.02.07-.04.15-.06.23-.02.08-.04.15-.06.22-.02.07-.03.12-.04.14,0,.01-.02.02-.04.02-.02,0-.03,0-.05.01-.62-.02-1.24-.03-1.85-.03s-1.23.02-1.85.05c-.02,0-.03-.01-.04-.03,0-.02-.01-.04-.02-.05l.07-.04c.14,0,.25-.06.34-.15.09-.09.14-.2.15-.32.02-.35.03-.7.03-1.05,0-.35,0-.7,0-1.05v-.99c0-.33,0-.66-.03-.99-.01-.14-.06-.25-.15-.32-.09-.07-.2-.12-.34-.16-.02,0-.04-.01-.05-.02-.02-.01-.02-.03-.02-.05,0-.01.03-.03.07-.05.38.02.76.04,1.14.05.38,0,.76.01,1.13,0,.17,0,.35-.01.53-.02.18-.01.36-.01.54,0,.02,0,.03,0,.05.02.01.01.02.02.03.03,0,.04,0,.09,0,.16,0,.06,0,.13,0,.19s0,.13,0,.2c0,.06,0,.12,0,.15-.01.04-.04.05-.08.05s-.07-.01-.09-.05c0-.03-.01-.06-.02-.1-.01-.04-.02-.08-.04-.12-.01-.04-.03-.07-.05-.1-.02-.03-.05-.05-.08-.05-.1,0-.2-.01-.29,0-.1,0-.2.01-.29.02-.42,0-.84,0-1.26,0,0,.33,0,.66.01.99,0,.33,0,.66,0,.99h1.01c.1,0,.19-.03.27-.1s.14-.14.16-.23l.04-.03h.07s.05.05.05.05v1s-.02.06-.07.05c-.05,0-.08-.02-.1-.04-.02-.09-.08-.16-.16-.23-.08-.07-.17-.1-.28-.1h-1.01c0,.35,0,.7,0,1.05,0,.35,0,.7-.01,1.05.32,0,.64-.01.95,0,.32,0,.63,0,.95.01.16,0,.3-.04.44-.11s.23-.19.27-.33l.05-.03h.07s.04.07.04.07c0,.04-.02.09-.04.16"/>
    <path class="cls-2" d="m81.66,100.63c-.78.78-1.53,1.57-2.26,2.36-.73.79-1.48,1.58-2.26,2.37.6,0,1.19-.01,1.78,0,.59,0,1.19,0,1.78,0,.13,0,.25-.01.38-.03.12-.02.24-.07.35-.14.02-.01.04-.03.06-.04.01-.01.03-.03.06-.04.03-.02.07-.01.1.01.03.02.04.05.01.08-.02.03-.05.07-.1.11-.05.05-.1.1-.16.15-.06.05-.11.1-.17.15-.06.05-.1.09-.13.12,0,0-.01,0-.03,0-.01,0-.02,0-.03,0-.27,0-.54,0-.81,0-.27,0-.54-.02-.82-.02-.57,0-1.14,0-1.71,0-.57,0-1.14.02-1.71.04l-.08-.03.02-.07c.76-.78,1.51-1.57,2.25-2.36.74-.79,1.48-1.58,2.24-2.37-.29,0-.56.01-.81.01h-.71c-.23,0-.47,0-.71,0-.24,0-.51,0-.81,0-.13,0-.25.01-.37.03-.12.02-.24.07-.34.13-.02.02-.04.03-.06.05-.01.01-.03.03-.06.04-.03.02-.07.02-.1,0-.03-.02-.04-.05-.01-.08,0,0,.03-.03.09-.08.05-.05.11-.11.18-.17.06-.06.13-.12.18-.17.06-.05.1-.09.11-.1l.05-.02c.42.01.82.02,1.19.03.37,0,.73,0,1.09,0,.36,0,.72,0,1.09-.02.37,0,.76-.02,1.19-.03l.08.03-.02.07Z"/>
    <path class="cls-2" d="m88.92,105.13c-.02.07-.04.15-.06.23-.02.08-.04.15-.06.22-.02.07-.03.12-.04.14,0,.01-.02.02-.04.02-.02,0-.03,0-.05.01-.62-.02-1.24-.03-1.85-.03s-1.23.02-1.85.05c-.02,0-.03-.01-.04-.03,0-.02-.01-.04-.02-.05l.07-.04c.14,0,.25-.06.34-.15.09-.09.14-.2.15-.32.02-.35.03-.7.03-1.05,0-.35,0-.7,0-1.05v-.99c0-.33,0-.66-.03-.99-.01-.14-.06-.25-.15-.32-.09-.07-.2-.12-.34-.16-.02,0-.04-.01-.05-.02-.02-.01-.02-.03-.02-.05,0-.01.03-.03.07-.05.38.02.76.04,1.14.05.38,0,.76.01,1.13,0,.17,0,.35-.01.53-.02.18-.01.36-.01.54,0,.02,0,.03,0,.05.02.01.01.02.02.03.03,0,.04,0,.09,0,.16,0,.06,0,.13,0,.19s0,.13,0,.2c0,.06,0,.12,0,.15-.01.04-.04.05-.08.05s-.07-.01-.09-.05c0-.03-.01-.06-.02-.1-.01-.04-.02-.08-.04-.12-.01-.04-.03-.07-.05-.1-.02-.03-.05-.05-.08-.05-.1,0-.2-.01-.29,0-.1,0-.2.01-.29.02-.42,0-.84,0-1.26,0,0,.33,0,.66.01.99,0,.33,0,.66,0,.99h1.01c.1,0,.19-.03.27-.1s.14-.14.16-.23l.04-.03h.07s.05.05.05.05v1s-.02.06-.07.05c-.05,0-.08-.02-.1-.04-.02-.09-.08-.16-.16-.23-.08-.07-.17-.1-.28-.1h-1.01c0,.35,0,.7,0,1.05,0,.35,0,.7-.01,1.05.32,0,.64-.01.95,0,.32,0,.63,0,.95.01.16,0,.3-.04.44-.11s.23-.19.27-.33l.05-.03h.07s.04.07.04.07c0,.04-.02.09-.04.16"/>
    <path class="cls-2" d="m101.47,101.23h-.05c-.1-.12-.21-.19-.35-.23-.09-.03-.22-.04-.4-.05-.18,0-.38,0-.58,0-.21,0-.41.01-.6.02s-.35.01-.46.01c0,.71-.01,1.42-.01,2.12,0,.7,0,1.41,0,2.12,0,.12.05.23.14.32.09.09.2.13.34.12l.07.03-.04.07-.03.02h-.84c-.28,0-.56,0-.84,0l-.07-.03v-.07s.07-.02.07-.02c.07,0,.13,0,.19-.03.06-.02.11-.06.16-.1.05-.04.08-.09.11-.15.03-.05.04-.11.04-.17.03-.71.03-1.42.03-2.12,0-.71-.02-1.42-.03-2.12-.25,0-.49,0-.73.02-.23.01-.48,0-.73-.02-.02,0-.04,0-.06,0-.01,0-.03.01-.06.03-.04.02-.07.05-.08.09h0s-.04.08-.06.14c-.01.05-.03.1-.05.14l-.07.04s-.04-.02-.05-.02c-.02,0-.03-.02-.04-.04.01-.12.03-.24.03-.36,0-.12.01-.24.03-.36,0,0,.02-.02.04-.04.01-.02.03-.02.04-.01.37.02.73.03,1.06.03h1.07c.05,0,.15,0,.28,0,.14,0,.29,0,.47,0,.17,0,.36,0,.55-.01.19,0,.37,0,.53,0,.17,0,.3,0,.42,0s.18,0,.2,0c.08.09.15.18.23.27.08.09.16.18.24.27v.07s-.09.04-.09.04Z"/>
    <path class="cls-2" d="m109.02,105.78c-.19,0-.37-.02-.56-.02-.19,0-.37,0-.56-.01-.08,0-.16,0-.23,0-.08,0-.15,0-.23,0-.02,0-.03-.02-.04-.04,0-.02-.02-.04-.02-.05l.06-.03c.07,0,.11-.02.13-.06.02-.04.04-.08.05-.12,0,0-.02-.06-.05-.14-.03-.09-.08-.19-.13-.32-.05-.13-.11-.26-.18-.41-.07-.15-.13-.29-.19-.43-.06-.14-.11-.25-.16-.35-.05-.1-.08-.17-.09-.2h-1.54s-.05.12-.1.22c-.05.1-.1.22-.16.35-.06.13-.12.27-.19.41-.07.14-.12.28-.18.4-.05.12-.1.23-.13.32-.03.09-.05.15-.04.17,0,.08.04.13.08.14s.1.03.16.05v.07l-.07.03c-.22,0-.43.01-.64.02-.21.01-.42.02-.64.02-.01,0-.03-.03-.06-.08l.06-.04c.16,0,.3-.06.43-.16.13-.09.22-.21.29-.33h0c.24-.52.47-1.04.7-1.56.22-.52.45-1.05.68-1.57l.44-1.06c.03-.07.07-.15.1-.23.03-.08.06-.15.1-.22.01-.02.04-.03.07-.03.04,0,.07.01.08.03l.13.3.44,1.05c.23.55.46,1.1.69,1.65.23.55.47,1.09.73,1.64.07.14.17.25.29.35.13.1.27.15.44.16l.08.09-.06.03Zm-2.96-4.02c-.11.24-.21.48-.31.73-.1.24-.2.48-.31.72.2,0,.41,0,.61,0,.21,0,.41,0,.62,0l-.61-1.45Z"/>
    <path class="cls-2" d="m115.93,101.37c.06.17.09.33.09.5s-.04.33-.12.49c-.07.16-.17.3-.3.42-.13.12-.28.22-.45.3-.17.08-.37.11-.57.11-.11,0-.21,0-.31-.03-.1-.02-.2-.05-.3-.1v-.07s.01-.01.03-.02c.01,0,.03,0,.04,0,.18-.02.35-.05.49-.08.14-.04.28-.12.43-.23.12-.09.21-.2.27-.33.06-.13.1-.26.11-.39,0-.13-.01-.27-.06-.4-.05-.13-.13-.25-.23-.35-.1-.09-.2-.16-.32-.2-.12-.04-.24-.06-.37-.07-.13,0-.26-.01-.4,0-.13,0-.26,0-.38,0,0,.48.02.96.02,1.44,0,.48,0,.96,0,1.44,0,.23-.01.46-.02.69,0,.23,0,.46,0,.69,0,.14.05.24.14.3.09.07.2.11.34.13,0,0,.02,0,.04.01l.02.07-.07.04c-.28,0-.55,0-.83.01-.28,0-.56.02-.83.04-.02,0-.03,0-.04-.03,0-.02-.01-.04-.02-.05l.07-.04c.14,0,.25-.06.33-.15.09-.1.14-.2.15-.31.02-.35.04-.7.03-1.05,0-.35,0-.7,0-1.05,0-.33,0-.66,0-.99s-.01-.66-.03-.99c0-.14-.06-.25-.14-.32-.08-.07-.19-.12-.33-.16-.02,0-.04-.02-.05-.04-.01-.02-.02-.04-.03-.05l.07-.03c.37.03.74.04,1.11.05.37,0,.74,0,1.11,0,.19,0,.38.03.56.09s.33.15.47.28c.15.14.25.29.31.45"/>
    <path class="cls-2" d="m123.03,105.78c-.18,0-.37-.02-.56-.02-.19,0-.37,0-.56-.01-.08,0-.16,0-.23,0-.08,0-.15,0-.23,0-.02,0-.03-.02-.04-.04,0-.02-.02-.04-.02-.05l.06-.03c.07,0,.11-.02.13-.06.02-.04.04-.08.05-.12,0,0-.02-.06-.05-.14-.03-.09-.08-.19-.13-.32-.05-.13-.11-.26-.18-.41-.07-.15-.13-.29-.19-.43-.06-.14-.11-.25-.16-.35-.05-.1-.08-.17-.09-.2h-1.54s-.05.12-.1.22c-.05.1-.1.22-.16.35-.06.13-.12.27-.19.41-.07.14-.12.28-.18.4-.05.12-.1.23-.13.32-.03.09-.05.15-.04.17,0,.08.04.13.08.14s.1.03.16.05v.07l-.07.03c-.22,0-.43.01-.64.02-.21.01-.42.02-.64.02-.01,0-.03-.03-.06-.08l.06-.04c.16,0,.3-.06.43-.16.13-.09.22-.21.29-.33h0c.24-.52.47-1.04.7-1.56.22-.52.45-1.05.68-1.57l.44-1.06c.03-.07.07-.15.1-.23.03-.08.06-.15.1-.22.01-.02.04-.03.07-.03.04,0,.07.01.08.03l.13.3.44,1.05c.23.55.46,1.1.69,1.65.23.55.47,1.09.73,1.64.07.14.17.25.3.35.13.1.27.15.44.16l.08.09-.07.03Zm-2.96-4.02c-.11.24-.21.48-.31.73-.1.24-.2.48-.31.72.2,0,.41,0,.61,0,.21,0,.41,0,.62,0l-.61-1.45Z"/>
    <path class="cls-2" d="m129.21,100.95c0,.07,0,.14-.01.21,0,.02,0,.03-.03.04s-.03.02-.05.03l-.07-.02c-.11-.11-.24-.19-.41-.24-.17-.05-.34-.08-.51-.08-.18,0-.35.02-.52.07-.17.05-.3.13-.41.23-.07.08-.13.16-.18.24-.05.09-.07.18-.07.28,0,.17.06.32.17.46.11.14.25.27.42.4.16.13.34.26.53.38.19.13.37.26.53.41.16.15.3.31.41.48.11.18.17.38.17.6,0,.17-.03.33-.1.5-.07.17-.17.31-.3.43-.14.12-.29.21-.47.27-.18.06-.36.09-.54.09-.28,0-.56-.02-.84-.05-.28-.03-.56-.07-.83-.13l-.05-.04c-.02-.09-.04-.18-.05-.27-.01-.09-.03-.18-.05-.27l.06-.08h.07c.15.1.33.18.54.26.21.08.42.15.64.18.22.04.43.04.64.01.21-.03.38-.12.53-.27.06-.06.11-.14.15-.22.04-.08.07-.17.07-.25,0-.13-.04-.25-.13-.38-.08-.12-.19-.25-.32-.36-.13-.12-.28-.23-.44-.35-.16-.11-.32-.23-.48-.34-.16-.11-.3-.22-.43-.33-.13-.11-.24-.22-.32-.33-.07-.1-.11-.21-.14-.32-.02-.11-.04-.23-.04-.34,0-.17.03-.33.1-.49.07-.16.17-.3.3-.43.14-.13.3-.22.48-.28.18-.06.37-.09.56-.1.23,0,.46,0,.7.03s.46.06.69.11l.05.05v.21Z"/>
  </g>
</svg>